<svg xmlns="http://www.w3.org/2000/svg" width="4096" height="4096" aria-label="Kestrel Mark" viewBox="0 0 4096 4096"><title>Kestrel Mark</title><g fill-rule="evenodd"><path fill="#023150" d="M1229 532c-1 1-3 2-3 2-2 0-1 596 1 596 0 1 1 2 1 5s1 5 11 15c6 6 17 19 24 27 8 9 15 17 17 19s8 8 12 14c17 18 49 50 63 60 21 18 72 49 114 72 7 4 18 10 23 13 12 6 72 36 82 40 4 2 16 7 26 12 25 11 76 33 87 37 2 1 8 3 13 5 10 5 15 7 20 8 2 1 5 2 8 3 2 1 6 3 10 4 3 1 9 3 13 5 3 2 11 4 16 6 5 3 11 5 12 5 1 1 4 2 6 2 1 1 4 2 7 2 10 4 18 7 21 8 1 0 5 2 8 3s7 3 10 3c2 1 6 3 9 4s7 3 9 3c1 0 5 2 7 3 8 3 26 9 30 10s11 4 13 5 3 1 10-12c4-6 10-16 14-22l6-10c0-1 4-7 8-15 7-12 10-16 16-26 0-1 1-2 2-3 0-1 8-14 11-20 2-4 8-12 9-15 1-1 5-8 9-15 5-8 11-18 15-23 3-5 8-13 10-17 3-4 6-9 7-10s2-3 2-4c2-2 20-29 25-36 10-14 12-17 16-23 13-17 23-30 36-46 3-3 8-8 11-12 15-18 60-60 86-80 36-28 83-56 123-73 9-4 19-8 22-9 50-22 136-38 203-37 110 0 218 38 296 103 21 18 31 28 51 53 5 6 9 11 9 11 2 2 4 0 18-20 4-6 9-14 12-18 4-6 4-6 4-165 0-120 0-158-1-159-1 0-1-4 0-4s1-8 1-23c0-14 0-22-1-22-2 0-1-9 1-10 1-1 1-6-1-6-1 0-1-1-1-2s0-2 1-2 1-6 1-15 0-15-1-15c-2 0-1-8 1-9s1-41-1-42c-2 0-1-6 1-7 1 0 2-32 0-33v-19c0-9 1-31 1-47 0-29 0-29-2-30-1-1-3-2-4-3-1 0-2-1-3 0h-360c-5-2-9 0-9 5-1 2-1 62-1 133 0 120 0 129-2 129-2 1-276 1-278 0s-2-8-2-133c0-72 0-131-1-131 0 0-2-1-3-2-2-2-3-2-160-2-87 1-159 1-161 1s-14 0-27-1c-15 0-24 0-25 1-2 1-2 2-2 121 0 135 0 144-3 146-4 1-274 1-278 0-3-1-3-1-3-133 0-72 0-131-1-131 0 0-2-1-3-2-4-3-370-3-374 0m1279 566c-50 3-98 14-145 33-5 1-11 4-15 5-28 11-65 32-106 60-17 11-59 44-71 56-12 11-11 16 3 13 9-2 20-5 25-6 2 0 5-1 7-1 1-1 7-1 13-2 5 0 14-1 20-2 5-1 11-1 13-1 3 1 3 4-1 7-10 7-49 45-62 61-5 6-12 14-16 19-17 21-46 61-60 83-6 9-48 71-55 80-2 4-6 9-8 11-2 3-6 9-9 14-4 5-8 11-10 13-2 3-8 10-13 17-6 6-10 12-10 13 0 0 3 2 7 4 26 12 34 15 51 24 39 20 90 50 109 64 2 2 8 7 15 12 45 34 95 86 130 132 26 36 58 99 68 133 1 2 3 10 5 16 25 80 30 169 15 256-4 28-7 40-15 67-3 12-3 14 1 12s34-56 46-83c11-26 26-68 35-102 5-18 5-53 1-107-2-19-2-16-7-44-16-82-41-142-87-212-32-47-86-103-126-130-12-8-11-7-10-22 5-56 25-113 54-159 11-17 15-22 23-32 35-44 68-67 111-79 14-4 49-7 53-4 0 0 1 6 2 14 3 40 24 76 59 100 6 4 20 10 33 14 3 1 9 3 11 4 2 0 6 1 9 1 2 0 4 0 5 1 2 1 1 5-2 7-2 1-8 6-19 15-3 3-9 8-13 11-7 6-9 8-19 20-46 53-67 107-67 170 0 33 1 37 10 72 5 15 11 29 20 45 5 10 6 9 12-17 10-38 16-56 33-95 22-49 63-105 100-137 3-3 7-6 7-6 2-2 19-16 26-21 21-16 50-32 72-40 17-6 25-8 37-11 15-3 20-4 31-5 6 0 11-1 12-1 0-1 1 0 2 0 3 2 0 5-6 9-16 10-34 27-50 46-9 11-10 14-21 30s-27 49-35 68c0 2-2 6-2 8-1 2-3 9-5 15-2 7-4 14-5 16-2 5-5 18-7 29-1 6-3 13-4 17 0 3-1 7-1 8 0 2-1 6-1 10-6 27-9 85-12 183 0 17-1 37-2 43-1 7-1 18-2 25-3 32-5 55-10 84-1 5-2 12-3 15-3 18-6 34-13 64-4 15-6 23-8 27 0 2-2 7-3 11-4 14-14 42-17 49 0 1-1 3-1 4s-2 6-6 14c0 1-1 3-1 4 0 0-1 2-1 4-1 1-4 7-6 11-2 5-5 14-8 18-2 5-5 12-7 15-3 8-14 30-18 38-2 4-4 7-5 8-1 2-19 34-24 41-38 61-81 116-135 172-17 17-55 52-67 63-3 2-10 8-15 13-19 16-51 40-72 55-22 15-28 19-38 26-6 4-14 9-17 11s-9 6-14 9-12 8-16 10c-5 3-13 8-19 12-7 4-24 14-38 23-31 18-60 36-73 44-5 3-14 8-19 12-103 62-179 134-234 220-21 33-17 34 18 6 4-3 12-9 17-13 5-3 11-7 15-10 18-13 26-18 42-27 31-18 56-31 74-39 12-5 14-6 29-12 5-2 11-4 14-5 13-5 47-15 57-16 5-1 6-1 12 7 2 3 5 6 5 6s4 5 9 10c16 18 35 38 69 72 33 33 50 51 66 68l14 14c9 10 16 19 16 21 0 3-10 24-13 27-2 2-2 2-43 2-32 0-42 0-50 2-33 5-57 20-75 45-9 14-20 42-17 44 2 1 526 1 562 0 26 0 26 0 24-5-1-2-3-4-3-5-9-18-29-42-37-44-3-1-4-2-4-4-2-6-33-23-51-28-17-4-28-5-88-5-49 0-59 0-61-1-3-2-15-15-25-27-4-5-9-12-11-14s-7-9-12-16c-4-6-9-12-11-13-1-2-2-3-2-4 0 0-3-5-7-10-25-34-36-51-52-79-7-11-10-17-13-25-2-4-3-7-4-9-13-30-10-71 8-105 8-15 10-19 23-36 16-22 60-61 97-88 3-2 10-7 15-11 4-3 16-12 25-20 15-11 37-30 62-51 28-24 73-71 100-103 43-50 91-126 114-180 1-2 3-6 3-8 1-1 2-4 3-7 3-6 6-14 7-17 2-3 8-20 8-21 0 0 1-2 2-5 1-2 2-4 2-5 0 0 1-2 1-4 1-1 2-4 2-5s1-4 2-5c0-1 1-3 1-4s1-4 1-5c1-2 3-9 5-16 3-6 5-13 6-15 0-2 1-5 1-7 0-1 1-4 1-6 1-2 3-8 4-14 1-5 3-12 4-16 0-3 2-10 2-15 1-5 3-14 3-19 4-19 7-44 10-74 2-17 3-49 1-49-1 0-1-7-1-25 0-17 0-24 1-24 2 0 1-31-4-89 0-11-1-25-2-31-1-14-4-46-5-61 0-7-1-11-2-11-1-1-2-12 0-12s1-62 0-62c-3-1-3-17 0-17 1-1 2-2 2-7 3-30 5-42 10-63 6-22 8-29 11-34 0-2 1-4 1-5s1-2 1-4c1-1 2-3 2-4 2-4 10-21 14-28l3-6c1-1 2-2 2-3 36-56 80-86 125-85 20 0 34 5 50 18 10 9 11 9 14-3 4-16 6-31 4-31s-1-4 1-5 2-17-1-18c-3 0-3-7 0-9 1-1 1-1 0-11-2-10-5-22-7-26-1-1-2-4-3-7-19-49-60-86-117-107-17-7-18-7-19-9-1-5-8-20-13-30-2-4-13-18-20-26-35-39-106-81-163-96s-105-20-160-15m97 97c19 2 41 5 54 10 23 7 70 29 85 40 30 20 59 44 59 48 0 3-36 3-62 0-6-1-13-2-15-3q-24-3-81-30c-17-8-16-8-25 1-33 30-32 74 0 96 15 9 36 10 54 1 16-8 31-23 38-38 7-13 9-2 4 22-8 44-55 78-97 69-52-12-86-64-75-118 3-17 11-32 22-44 3-3 5-6 5-6 0-1-8-4-14-5-3 0-8-2-12-2-26-6-34-7-50-9-10-1-25-3-34-4-10-1-22-1-35-1-23 0-22 0-22-2s4-5 12-6c4-1 9-3 13-3 37-11 52-14 88-17 18-1 69-1 88 1m71 97c14 9 13 25-1 33-15 8-32-13-22-28 6-8 16-10 23-5m193 14c43 16 70 37 92 68 11 15 20 38 21 52 1 4 1 8 2 10 0 6-3 7-9 4q-4.5-3-6-3l-6-2c-9-5-25-10-30-10-1 0-3 0-5-1-3-1-20-3-41-4-28-1-69 4-92 10-2 1-7 3-10 4-4 0-8 2-10 3-10 3-9-3 2-11 13-10 35-28 42-35 11-11 25-30 25-33 0 0 1-1 1-2 1-1 5-10 11-29 0-2 1-8 1-13 0-12 1-13 12-8m-1854-185c-2 1-3 52-1 73 4 31 6 45 12 69 4 18 12 47 14 53 1 1 2 5 3 8 5 16 25 58 38 82 20 37 54 85 81 114 20 21 49 49 59 57 2 2 8 7 13 11 17 15 55 43 81 60 10 6 20 13 23 15 39 25 114 64 166 85 9 4 20 9 25 11 12 5 46 17 49 17 1 0 3 1 6 2 9 3 8 11-1 8-1-1-5-1-8-2-2 0-11-2-18-4-16-3-24-5-42-9-8-1-18-3-23-4-22-6-56-14-60-15-3-1-9-3-13-4-5-1-10-3-12-3-3-1-7-2-9-2-2-1-7-3-11-3-4-1-8-3-10-4-3 0-8-2-12-3-47-14-101-33-153-56-39-16-95-45-135-69-23-14-28-17-30-16-4 2 8 52 20 83 5 12 13 31 14 34 0 1 3 5 5 9 4 9 16 30 25 44 38 59 93 111 158 149 43 25 69 38 117 56 4 2 9 4 13 5 4 2 9 4 13 5 3 1 7 2 8 3 4 2 32 10 44 13 5 1 10 3 13 4 2 0 5 1 6 1s3 0 4 1 4 1 6 2c5 1 13 3 23 5 13 4 33 8 56 11 3 1 10 2 14 2 20 4 79 11 95 11 4 0 9 0 9 1 3 1 2 4 0 4-6 2-20 3-37 4-10 1-19 1-19 2-1 0-10 1-21 1s-24 1-27 1c-38 3-144 1-174-3-7 0-14-1-18-1s-10-1-15-2c-7-1-10-1-12 0h-4c-3-2-13-4-18-4-3 0-7 0-9-1s-9-2-13-2c-5-1-12-2-14-3-6-1-14-3-20-4s-16-3-23-6c-3 0-6-1-7-1s-3-1-6-1c-2-1-7-3-10-3-8-3-19-6-23-7-7-3-11-4-13-5-3-1-8-2-13-4-4-2-5 0-2 7 6 19 10 27 26 53 6 9 26 36 34 45 10 11 30 31 37 36 4 3 8 7 9 8 9 9 46 34 64 44 27 16 78 38 106 45 2 0 7 2 11 3 19 5 47 10 76 14 40 6 131 5 174-3 5 0 14-2 22-3 7-1 15-3 19-4 29-6 28-6 28-7 0-2 2-3 5-2 1 1 2 1 4 0s6 0 6 1c0 3-4 6-13 10-3 1-14 6-25 12-17 7-62 25-77 30-33 10-80 21-119 28-42 7-124 10-159 6-17-1-57-9-60-10-3-2-3-2-6 62-1 13-2 32-2 42-1 10-2 30-2 43-1 13-1 31-2 39s-1 26-2 40c-1 15-1 28-2 30 0 2 0 15-1 28 0 13-1 34-2 46-1 18-1 22 0 23 1 0 1 7 0 8-2 0-5 44-3 45 2 0 1 13 0 14-1 0-2 4-2 13-1 8-1 23-2 34-2 48-3 63-4 96-1 32-1 35-3 39-2 3-4 8-5 11-2 6-5 11-7 15-2 5 0 8 4 6 3-2 30-22 34-26 5-5 26-23 41-36 8-6 19-15 24-20 6-5 19-17 30-26 20-17 24-22 42-39 5-5 13-12 18-16 17-16 107-104 139-138 21-22 26-28 41-46 5-4 14-14 20-21s16-18 21-24 16-19 23-28c8-8 17-19 20-22 6-8 24-30 38-47 5-6 13-15 17-20s11-14 17-20c5-6 15-18 21-26 7-8 13-16 15-18 1-1 6-7 10-13 11-12 12-14 15-13 1 0 1 7-1 8 0 0-3 4-5 9-12 22-18 32-24 43-3 5-6 10-6 11-1 1-2 3-4 5-1 3-3 6-4 8-3 7-40 62-53 79-6 9-12 18-13 19-16 23-62 81-86 109-49 56-81 91-132 141-33 32-46 44-59 56-5 4-14 13-21 19-27 24-55 48-90 78-27 22-115 87-130 96-6 3-9 7-13 14-10 17-56 110-68 134-7 14-17 36-27 56-7 14-7 15-5 15 4 2 238 0 248-1 50-8 94-25 140-54 49-32 96-80 192-199 10-12 20-25 23-28 2-3 7-9 10-12 3-4 10-12 15-18 5-7 11-14 13-17 3-2 7-7 10-11 3-3 8-9 12-13 3-3 7-8 9-11 2-2 8-8 12-13s11-13 16-18c5-4 15-15 23-24s47-48 87-89c90-89 107-106 143-146 20-21 67-79 80-99 16-23 27-39 34-50 2-4 6-9 7-11s7-11 12-21 11-20 12-23c3-5 21-41 21-41 0-1 2-5 4-10 3-6 7-14 9-19s4-11 4-13c5-11 11-29 14-43 2-4 4-12 5-16 8-27 13-61 15-106 2-26 1-42-4-79-4-29-12-62-22-88-2-4-4-12-6-17-7-17-14-33-24-52-11-20-34-53-48-71-13-15-53-56-69-69-67-56-159-104-296-156-25-9-49-18-62-23-2-1-10-4-16-6s-14-5-16-6c-3-1-12-4-21-8-14-5-22-8-32-12-2 0-8-2-13-4s-13-5-16-7c-10-4-28-11-33-13-102-39-245-109-340-165-7-4-16-9-19-11-17-10-24-14-61-39-16-10-54-38-64-46-3-2-8-6-12-10-16-12-39-31-48-39-5-5-16-16-26-24-9-9-23-23-31-32-8-8-17-19-21-22-4-4-8-10-10-12-5-6-7-7-9-6m1771 1210c-1 0-2 2-2 3 0 0-1 4-3 7-1 3-6 12-9 19-11 23-25 50-27 54-1 1-4 6-6 11-2 4-5 10-7 12-1 2-3 6-4 7 0 1-2 4-3 5-1 2-3 5-4 7-2 4-3 6-14 22-7 12-10 16-27 39-44 58-88 106-137 149-27 23-30 26-44 37-7 6-14 12-16 13-5 4-36 28-71 54-55 42-84 77-96 117-14 44-8 63 41 135 22 33 26 39 51 70 16 20 10 18 47 18 41 0 68 3 96 10 59 15 102 56 126 120 1 2 2 4 3 4 2 1 298 1 300 0 1-1 0-4-3-10-3-5-14-28-26-52s-23-44-23-46c-1-1-10-20-22-42-28-56-48-94-60-117-2-4-9-17-14-28-6-11-12-23-13-25-6-11-7-13-7-19 0-4 0-7-1-7v-12c0-6 0-18-1-27s-2-32-2-51c-1-18-1-40-2-49-1-8-1-22-1-32 0-9-1-26-2-39 0-12-1-30-1-41s0-20-1-20c0 0-1-5-1-10 0-25-1-54-3-55-1-1-2-18 0-18 1 0 1-5 1-19-2-34-2-42-4-43-1-1-2-30 0-30s-1-48-3-50c-3-3-3-15 0-16 1 0 1-2 1-21-2-35-2-39-6-34"/><path fill="#009ec7" d="M2551 1196s-1 1-1 2c0 0 0 1-1 1-2 0-1 3 1 3 0 1 2 1 4 1 7 0 12 6 8 8l-2 2c0 2 2 3 4 2 1 0 3 1 5 3s4 4 6 4c2 1 5 3 7 4 2 2 4 3 5 2 2-1 6 1 6 3s1 3 4 4 4 2 3 9c0 3 2 4 4 3 3-2 11 2 11 5 0 2 1 3 2 4 3 1 3 1 7-2 4-4 4-4 30 8 23 10 28 12 28 9l2-2c2 0 2-1 1-5 0-6 1-8 7-10 2-1 3-2 3-4s2-3 6-5c3-2 6-4 6-5s3-2 5-1c3 0 7-3 7-5 0-1-22-12-33-16-12-5-23-9-24-9-2 0-6 5-5 7 0 2 0 3-1 3s-1 1-1 1c0 2-5 6-9 8-4 1-5 2-5 4s-2 3-6 2c-3 0-4 0-6 2-4 4-16 3-16-2 0-1-1-2-2-3-2 0-2-1-2-3q1.5-3 0-3l-2-2c0-1-1-2-2-3-1 0-2-1-2-3 0-1 0-2-1-2-2 0-1-8 1-9 2 0 2-7 0-8s-49-3-52-2m-41 1c-13 2-15 3-15 5 0 1 0 2-1 2s-1 1-1 2 0 2-1 2c-1 1-1 2-1 3s-1 2-2 2c-2 1-3 5 0 6 0 0 1 1 1 2 0 2 1 2 15 4 6 1 12 3 15 3 5 1 7 0 7-2l2-2c3-1 3-12 0-14-5-3-3-7 4-7 6 0 9-5 4-6-2-1-15-1-27 0m235 55c-2 1-2 2-1 5 0 3 0 4-2 4-2 1-11 9-11 11 0 1-4 4-7 6-1 1-2 2-2 5 0 5 2 5 17 7 6 1 14 1 18 2 8 1 10 1 10-2 0-1 0-2 1-2s1-2 1-4c0-3 0-4 3-6 8-4 8-4-8-16-14-11-16-12-19-10m-181 3c-4 3-15 24-16 33-1 4-1 4 2 5 3 2 5 2 5-1 0-2 4-2 11 1 4 2 8 4 8 3 3-1 6 1 6 5 0 1 0 3 1 3s1 4 1 11c0 6 0 11 1 11l2 6c2 7 7 14 8 14s1 1 1 2c0 3 6 5 10 3 3-1 4-3 2-5-1 0-2-2-4-4-9-14-11-28-7-45 1-5 1-7 0-8 0 0-2-1-3-3-2-1-3-2-4-2 0 0-1-2-1-5-1-2-1-5-2-5s-1-3 0-3 1-3 0-4-4-3-7-5l-6-4c0-3-6-5-8-3m-103 64c-17 2-42 8-56 14-42 19-90 71-120 132-19 37-35 93-37 130 0 10 0 10 4 13 51 33 108 95 152 165 20 32 46 91 54 125 16 60 21 91 23 140 0 14 1 18 2 18 3 2 5-1 7-10 2-8 3-14 8-45 1-6 3-14 3-18 1-3 2-9 2-14s2-15 2-23c1-7 3-21 3-31 1-10 3-23 4-31 0-7 1-15 1-18 0-5 3-29 5-41 4-19 4-18-9-41-8-15-13-27-22-61-9-36-4-95 11-136 14-37 45-80 73-105 6-5 15-12 20-17l10-8c1 0 1-1 1-1 0-1-3-3-7-4-32-9-44-15-60-28-29-25-49-63-49-94 0-3 0-5-1-5s-2 0-2-1h-3s-1-1-1-2c0-4-2-4-18-3m89 18c-2 2-2 2 0 8 9 26 24 43 46 55 8 4 11 4 11 1 0 0 0-1 1-1 2 0 1-3 0-3-1-1-2-2-2-3 0 0-1-2-3-4s-3-4-3-5c0-2-1-3-4-5-3-1-5-4-6-6-2-3-3-5-3-5-1 0-2-3-2-7-1-3-2-6-3-7s-2-4-2-6c0-1 0-3-1-3s-1-1-1-2c0 0 0-1-1-1 0 0-2-1-3-2-2-2-3-2-10-2-6 1-7 0-9-1-3-2-3-2-5-1m75 28c-1 1-3 2-3 2-2 0-1 3 3 6 7 6 8 7 8 8l4 2c10 4 11 5 11 8 0 1 1 3 2 5 0 1 1 3 1 4-1 2 0 6 1 6 3 2 26-9 26-11 0-1-2-3-5-5-1-1-2-2-2-3 0-2-4-5-8-7-3-1-5-7-2-7 1 0 1-1 1-2 0 0 0-1-1-1s-1-1-1-2 0-1-11-1c-7 0-15-1-20-3-1-1-3 0-4 1"/><path fill="#eef1f4" d="M2093 520c-2 0-1 4 1 4 2 1 140 1 142 0 1 0 2-1 2-2s-1-2-2-2c-1-1-141-1-143 0m-881 58c-2 1-2 520 1 520 0 1 2 1 3 0 2-1 2-1 4-1 1 0 1-518 0-518s-3-1-5-1c-1-1-2-1-3 0m1329 154c-1 1-1 6-1 24 0 26 0 28-3 30-2 1-241 1-254 0-4-1-7-1-8 0-1 0-2 9 0 9h273s1-9 1-31c0-21 0-31-1-31-2 0-2 0-4-1-1 0-2-1-3 0m-664 48c-1 1-2 2-2 3s-1 2-2 2c-2 1-242 1-248 1-7-1-8-1-8 4 0 3 1 4 2 4 2 1 263 1 265 0 2 0 3-13 1-13-1 0-3-1-5-1-1-1-2 0-3 0m876 290c-1 0-1 5 0 6s6 4 11 6c4 3 11 7 15 9 3 2 7 4 8 4 3 0 8 4 8 6 0 1 2 2 5 3 2 1 5 3 7 5 1 1 3 2 4 2s4 2 6 4 5 5 7 6c1 1 2 2 2 3 0 2 1 3 4 4 2 1 6 4 8 6 3 2 5 4 5 4 1 0 1 1 1 2 0 0 2 2 5 3 4 2 5 3 5 5q0 1.5 3 3c2 1 3 3 3 4s0 2 1 2 1 1 1 3c0 4 2 6 5 7 3 0 10 5 10 6s2 4 5 6 5 5 5 6 3 2 5 1c0 0 1-1 1-2 0 0-1-1-1-2-1 0-2-1-2-1 0-1-4-7-17-22-18-21-37-38-68-61-12-8-50-29-52-28m-248 14c-3 0-6 1-8 2-1 0-3 1-4 1-5 0-6 1-6 4 0 4 2 4 9 3 3-1 21-1 39-2 36 0 38 0 38-2s3-3 6-3c1 1 2 2 2 3 0 2 4 4 7 4 8 0 8-6 2-9-5-1-74-3-85-1m-251 12c-31 19-61 39-73 51-1 1-6 5-10 8-25 21-81 79-83 86l-1 1c-2 0-1 3 1 3 1 1 16-13 16-15 0-1 2-2 3-3 2-1 4-4 5-5 1-2 4-4 6-6 2-1 4-3 4-4s2-3 4-4 4-3 4-5c1-1 3-2 7-4 3-1 5-2 5-3 0 0 1-2 2-3s2-3 2-4c0-2 1-3 4-5 2-1 4-3 4-4 0 0 2-2 4-3l5-5c1-1 2-3 3-4 3-2 10-9 10-10 0-3 21-16 26-16 3 1 7-2 7-5 0-2 3-8 5-9 1 0 2-1 2-1 2-2 9-6 12-6 2-1 5-3 7-5s5-4 7-5c3 0 8-3 9-4 0 0 3-2 5-3 3-2 5-4 5-4 0-1 6-4 10-4 4-1 6-9 3-10-1-1-10 4-20 10m-1232 17c-4 2-4 3 20 30 14 15 50 52 54 54 4 3 8 1 5-3-9-9-26-26-27-26s-1-1-2-3c0-1-1-2-1-2-1 0-12-11-12-12s-18-19-19-19l-2-4c-1-2-3-4-3-4-1 0-2-2-3-4-2-3-4-6-7-7zm1060 134c-4 4-20 26-20 27 0 0 1 1 2 1 2 1 8-3 8-5 0-1 2-3 5-4 3-2 4-4 4-5 0-2 1-4 3-5q3-3 3-6c0-5-2-6-5-3m-751 10-1 1c0 2 9 11 14 15 2 2 3 3 3 4 0 0 2 2 4 3s4 3 5 4 4 2 6 3 4 1 4 2c0 0 1 1 2 1 1 1 2 2 2 3 0 0 2 2 5 3 2 1 4 3 4 4 0 2 4 4 7 4 1 0 3 1 5 3 1 1 5 4 7 5 3 1 5 3 6 4 0 0 3 2 6 3s6 3 6 3c0 2 5 5 7 6 2 0 8 2 9 4 0 0 5 3 12 6 13 7 15 9 15 11s2 3 4 2c3-2 10 2 11 5 0 4 4 5 9 2 4-2 4-3-4-7-19-10-28-15-48-27-12-7-23-14-25-15-1-1-6-4-10-7-19-11-44-29-50-35-7-6-12-11-13-11 0 0-1 0-2 1m729 19-1 1c0 1-1 3-3 5-3 3-11 15-11 16s0 1-1 1-1 4 0 4c2 1 4 0 4-1s2-3 4-4c4-2 5-3 6-6 1-2 2-4 3-5 2 0 2-1 2-4q-1.5-3 0-3c1 0 1-4 0-4s-2-1-3 0m153 6c-2 0-3 1-3 2s-2 2-5 4c-4 2-6 4-6 5s-2 4-4 6c-5 5-11 13-11 14s-8 9-9 9c0 0-1 2-2 3-1 2-4 5-6 6s-3 2-3 4-1 3-3 4c-3 1-3 2-3 5s-3 7-5 7c-1 0-1 1-1 2s-1 2-1 2l-2 2c0 1-2 3-4 4s-4 3-4 3c0 1-2 3-3 5-2 2-4 5-5 8-1 2-2 4-3 4 0 1-1 2-1 2 0 1-1 2-2 3s-2 3-3 4c-1 2-4 4-5 5-2 1-3 2-3 5 0 2-1 3-1 4-1 0-2 1-2 2l-2 2c-1 1-2 2-2 3s-1 2-1 2l-2 2q0 1.5-3 3c-2 1-3 2-3 5-1 3-2 5-3 5 0 1-1 2-1 3 0 2 0 3-1 3-2 0-1 5 0 5 2 1 3 0 11-12 7-10 9-14 18-27 10-14 16-22 22-30 3-4 6-8 6-9 0 0 1-1 2-1 0-1 1-2 1-2 0-1 1-2 2-3 1 0 2-2 2-3 0 0 0-1 1-1s1-1 1-2c0 0 0-1 1-1 0 0 4-4 9-10 13-16 26-30 37-42s12-14 9-15c-1-1-1-1-4 1m449 12c-14 8-9 29 5 29 17 0 21-22 7-29-6-3-8-2-12 0m-622 11c-2 2-11 16-11 17 0 0 0 1-1 1-2 0-1 3 0 3 1 1 3 0 4-2 2-1 4-3 6-3 2-2 3-3 3-7 1-2 2-4 3-5 1 0 1-5-1-5 0-1-2 0-3 1m-15 23c-2 1-9 12-9 12 0 1-1 3-3 5-11 17-16 25-16 26s0 2-1 2-9 14-9 16c0 0 0 1-1 1s-5 5-6 8c0 1-2 3-4 6-1 3-3 6-3 7 0 0 0 1-1 1s-1 1-2 2-1 3-2 4c-1 2-10 17-14 24-2 4-4 8-5 9s-2 3-2 3c0 1-1 3-3 5-2 3-3 5-3 5 0 1-1 3-3 5-1 3-4 8-6 11-3 4-5 8-5 9-1 1-3 4-5 8q-9 13.5 3 9c3-2 4-3 4-6 0-1 0-3 1-4 1 0 1-1 1-2s1-2 2-3l2-2c0-1 1-2 2-3 0-1 1-2 1-3s1-2 2-3 2-2 2-3c0-2 0-3 1-4 1 0 1-1 1-2 0-2 5-7 7-7 1 0 1-1 1-3s0-3 1-3 1-1 1-2 2-4 3-5c2-2 4-5 4-6 1-2 1-3 2-3s1-1 1-3 1-3 2-4c0 0 1-1 1-3s1-3 2-3c0-1 1-2 1-2q0-1.5 3-3c2-1 2-1 1-4 0-2 0-3 1-3s1-1 1-2c0-2 1-3 2-4 1 0 2 0 2-1 0 0 1-1 3-2 1 0 2-2 2-3s0-2 1-3c1 0 1-1 1-2s1-2 2-3c0 0 1-1 1-3 0-3 4-8 8-9 2-1 2-2 2-7 0-3 0-5 1-5 2 0 9-8 9-11 0-1 1-2 2-3 0 0 1-1 1-3 0-1 1-2 2-2 0-1 1-2 1-3 0-2 2-3 6-6q3-1.5 3-6c1-3 2-5 3-5 1-1 1-6 0-6-1-1-2 0-3 0m-706 28c-4 2-2 3 11 11 8 4 19 10 25 14 21 12 63 34 64 33 2 0 3-4 1-4-1 0-1-1-1-1 0-1-1-2-1-2l-2-2c0-2-1-2-3-2h-3c-1 1-2 0-4-1-1-1-3-2-3-2-1 0-1-1-1-2s-6-4-9-4c-2 0-4-1-5-2-2-3-7-5-10-5-1 1-3 0-5-2-1-1-5-4-7-5-3-1-5-3-6-4-1-2-3-3-11-4-2-1-3-2-4-4-2-4-4-6-7-4-1 1-2 0-4-1-1-1-3-2-3-2-1 0-1-1-1-1 0-4-6-6-11-4m769 85c-3 2-4 3-4 7-1 2-2 5-2 6-1 0-2 1-2 2l-2 2c-1 0-2 2-2 3s-2 3-4 4c-1 1-3 3-3 4s-1 2-1 3c-1 1-2 2-2 3l-1 1c-2 1-3 8-1 8 3 1 5-1 20-24 1-2 3-5 4-6 2-2 8-12 8-13s-3-2-3-2-2 1-5 2m734 24-1 1c0 1-2 3-4 4-3 2-4 3-4 5 0 3-10 12-13 11h-2c-1 0-1-2-1-6 1-8-3-11-12-8-4 2-4 6 0 8 1 1 2 2 2 4s1 3 5 5c5 2 6 5 1 7-1 1-3 3-4 5s-2 4-5 5c-3 2-3 2-3 5 1 1 0 3-2 5s-3 4-3 5-1 2-1 3c-1 0-2 1-2 2 0 0-1 1-2 1-1 1-2 1-2 2s-6 3-7 3c-3-2-8 4-5 6 1 2 1 8 0 8s-1 1-1 2c0 2-1 4-4 5-3 3-4 7-1 9 3 3 4 3 9-8 2-3 6-9 9-15 4-5 7-9 7-10 0 0 1-1 2-1 0-1 1-2 1-3s0-2 1-2c0 0 5-5 10-11 10-13 29-32 36-37 4-3 5-6 3-6-1 0-1-1-1-2 0-2-3-4-6-2m-1265 12c-5 3-4 3 30 17 16 8 38 17 45 19 2 1 8 3 13 6 16 7 20 8 22 7 1 0 2-5 0-5-1 0-1-1-1-1 0-2-3-4-6-4-6 0-11-2-14-5-2-3-4-3-7-4-5 0-11-2-14-5-1-1-3-2-4-2-3 1-12-2-12-3s-9-6-11-6c-4 0-11-3-11-5 0-1-2-2-8-3-4 0-6-1-7-3q-7.5-6-15-3m1090 83c-6 5-10 10-10 10q0 1.5-3 3c-5 5-43 54-43 57 0 1-1 3-3 5-8 13-23 43-35 72 0 2-1 4-2 5-1 2-2 5-3 7 0 3-2 8-3 11-3 9-4 10-1 11 3 2 9-3 9-8 0-7 5-20 7-20 1 0 1-3 1-6 0-5 0-6 2-7l2-2c0-1 1-2 2-3 0-1 1-3 1-5s1-4 1-5c1-1 2-2 3-4 0-2 1-3 1-3 1 0 5-8 5-11 0-1 1-3 2-4l4-4c0-1 1-3 1-4s1-2 2-3c0-1 1-2 1-3l2-2s1-2 1-4 1-4 2-4c0-1 1-2 1-2 0-1 2-2 4-3 3-2 3-3 3-6 0-2 0-4 1-4s1-1 2-3c1-1 1-2 2-2s1-1 1-2 1-2 2-2c0-1 1-2 1-2 0-1 2-3 4-4 3-1 4-2 4-4s1-3 4-5c1-1 3-2 3-3s3-7 6-10c1-1 2-3 2-4 0 0 0-1 1-1s1-1 2-3c1-1 1-2 2-2 0 0 1-1 1-2 1-1 3-3 6-4 3-2 5-4 5-4 0-1 2-3 5-6 5-4 6-9 3-10-1-1-4 1-11 9m-884-3c-6 3-6 6-2 7 1 0 4 1 6 2 2 0 6 2 8 2 13 5 21 8 27 10 2 1 6 3 10 4 3 1 7 3 10 4 2 1 5 2 7 3q6 1.5 6-3c0-4-2-6-7-7-5 0-13-3-14-4s-10-5-13-5c-1 0-5-2-9-3q-6-4.5-9-3c-3 0-10-3-13-6-2-2-5-2-7-1m-726 40c-4 1-4 9-1 17 1 3 2 7 3 10 0 2 1 4 1 5 2 1 1 4-3 5-6 4-5 8 3 11 3 1 8 8 8 11 0 1 1 3 2 3 1 2 1 3 1 7-1 7 1 9 6 7 4-2 4-3-1-17-5-13-10-35-13-50-1-11-2-12-6-9m1121 62c-3 2-3 4 2 7 2 1 3 2 3 4 0 1 0 2 1 2 5 1 9 2 13 6 1 2 3 3 4 4 5 3 13 9 15 12 4 3 10 8 14 10 2 2 5 4 10 9l3 3c5 3 40 36 40 38 0 1 0 1 1 1 0 0 2 2 4 5 2 2 5 6 7 8 2 3 4 5 4 5 0 1 1 2 3 4 1 1 2 3 2 4 0 2 1 3 4 4l3 3c0 1 2 3 6 7 3 3 5 6 5 6l3 3c2 1 4 4 5 7 1 2 3 4 4 4 0 1 1 2 1 4 0 1 1 3 1 4 1 0 2 2 3 2 0 1 2 2 3 3 2 1 3 3 3 4 0 2 3 8 5 9 0 1 1 2 1 4 0 1 0 2 1 2s1 1 1 2 1 3 2 3c1 1 2 2 2 3s1 3 2 4 2 3 2 4 1 3 3 5 3 5 3 7c0 3 2 6 7 9 3 1 6 1 6-1s-10-21-20-39c-33-57-92-121-159-171-20-15-20-15-23-14m-696 78c-1 1-3 2-3 2-1 0-1 14 1 15 1 1 25 7 27 6 0 0 1-1 1-2l1-1c2-1 4 0 4 2 0 3 2 4 8 6 3 0 6-1 6-2s0-2 1-2c0 0 1-2 1-3 1-2 1-3-7-6-5-2-12-5-17-7-8-4-8-4-10-2-3 3-7 1-6-3 0-4-4-6-7-3m1078 11c-1 1-3 7-8 26-5 22-6 25-7 31 0 3-1 9-2 12 0 4-1 11-2 15-2 18-4 31-4 31 1 1 6 1 7 0 2-1 2-2 2-6 0-3 1-8 2-11 2-5 2-7 1-15 0-8 0-10 1-11s2-4 2-9c0-6 1-8 2-9 2-1 2-5 4-15 1-10 2-15 2-15 1-1 2-3 2-5 1-2 2-4 3-5 1-2 1-3 1-8q-1.5-9-6-6m-1364 101c-2 1-1 2 4 7 2 2 4 4 4 5 0 0 1 1 1 2 2 1 12 10 16 14 2 1 5 3 7 4l4 4c1 2 3 3 5 4 1 1 4 2 6 4 1 1 4 3 6 5 2 1 4 3 4 3s1 1 3 2 5 3 8 5c3 1 6 3 7 3 2 0 7 4 7 6s4 4 7 4c2 0 4 2 7 4 2 1 6 4 9 5s5 3 5 3 3 2 6 3 7 3 9 5c1 2 4 3 5 3 1 1 3 2 5 3s7 3 11 5 8 4 9 4c0 1 3 2 7 3 8 3 13 5 15 7 4 3 11 2 11-1 0-2-2-3-12-8-28-10-76-37-110-59-10-6-41-31-52-40-6-6-11-10-12-10 0 0-1 0-2 1m1197 73c-2 2-2 2-1 5 0 2 1 5 1 7s1 3 2 4 2 2 2 4 1 4 1 6c1 1 2 4 2 7 0 4 1 6 2 8 1 1 2 3 2 5 0 1 1 2 2 3 2 1 1 7-1 9-4 1-4 5-1 6 2 1 3 3 4 5 2 4 3 5 6 4 0 0 1 0 2-1h3c1-1-10-40-17-61-4-12-6-13-9-11m25 96c-2 1-2 2-1 11 0 7 1 11 2 12s1 2 4 49c1 17 1 50 0 52-1 0-3 1-5 1-1 0-1 1-1 1 0 1 0 2-1 2-2 0-1 6 1 8 1 1 3 2 3 2v14c0 15 0 16 5 16 3-1 3-1 5-17 4-48 2-100-5-142-1-11-3-13-7-9m-1064 3c-1 0-1 3 0 3s1 1 1 1c0 4 11 6 14 3 1-1 3-2 4-2 1 1 1 1 2 1v1q0 1.5 3 3c1 0 4 1 7 1 2 0 9 1 17 2 7 1 13 1 14 1 3 1 32 3 35 3l2-2c0-1 1-2 2-2 3-2 1-4-4-5-6-2-13-2-41-2-10 0-15 0-17-1-2 0-5-1-7-1s-5-1-7-2c-3-2-21-4-25-2m241 2-1 1c0 1-2 3-4 3-4 2-7 5-4 5 1 0 1 1 1 2s0 2 1 2 1 1 1 1q0 1.5 3 3c3 0 74-3 77-5 3-1 2-3 0-3-6-2-17-3-22-3-3 0-9-1-14-1-4-1-9-2-12-2-2 0-6-1-9-1-6-2-5-2-8 0-2 2-5 2-5-1 0-1-2-2-4-1m916 41c-1 1-2 4-3 7-1 4-2 9-3 13s-3 11-4 16c-2 6-4 16-7 22-4 16-5 19-3 20 3 1 6-1 6-2s1-2 2-2c0-1 1-2 1-4s1-5 2-8c0-2 1-5 1-6 0-2 1-4 1-5 2-2 5-13 6-21 0-3 1-6 2-7 0-1 1-2 1-4 0-1 1-2 1-3 2 0 4-9 4-12 0-1-4-5-5-5 0 0-1 1-2 1m-746 186q-3 1.5-3 3c0 3-3 5-8 5q-6 0-6-3c0-2-3-2-8-1-3 0-11 1-19 2-18 1-18 1-18 5 0 3 4 5 10 5 4 0 6 2 7 7 0 4 1 6 4 5 1 0 13-4 27-10 26-9 29-11 25-14-1 0-2-2-2-2 0-3-4-4-9-2m-321 59c-1 0-1 3 0 3s1 1 1 1c0 3 5 4 45 3 40 0 45 0 45-3 0 0 0-1 1-1 2 0 1-3-1-3-1-1-89-1-91 0m1298 46c-1 1-2 4-3 6-1 3-2 5-2 5s-5 9-10 20c-6 11-12 24-15 28-7 13-6 15 3 11 4-1 4-1 4-6q0-7.5 9-9c4-1 4-4 1-6-4-1-4-3 1-8 3-3 4-5 4-9 1-4 2-6 5-9s3-3 3-7c-1-5-1-5 4-8 4-2 5-3 3-6-2-4-4-5-7-2m-856 38c-2 1-6 7-11 12-4 5-11 14-15 18-4 5-7 9-7 9 0 1-1 2-2 3-2 2-29 34-49 58-6 8-19 24-29 35s-21 24-25 29c-3 5-10 12-14 16-4 5-18 20-30 33-44 50-138 144-182 184-16 14-17 18-4 13 5-2 7-3 7-5s1-3 4-4 4-2 4-4c0-1 1-3 4-4 2-1 4-3 4-4 0 0 2-2 4-3l5-5c0-2 1-3 2-3 2 0 13-11 13-14 1-1 2-2 4-3s3-2 4-4c0-1 1-2 2-3 3 0 7-4 7-6 0-1 2-2 3-4 2-1 4-3 4-4l2-2c1 0 10-8 13-11 5-6 14-15 15-15 0 0 1-1 1-2 1-2 2-3 3-4 4-2 31-28 31-30 0 0 2-2 4-3l3-3c0-1 2-3 4-4l3-3c0-2 6-7 7-7s1-1 2-3c1-1 2-3 4-4s4-3 5-4 2-3 4-4 3-3 4-4c0-2 1-3 3-4 1-1 3-3 4-5 0-1 2-3 3-4 1 0 3-2 4-4 1-3 3-5 4-5 0-1 1-2 1-2 0-1 2-3 5-6 7-7 13-15 14-17 0 0 0-1 1-1s6-5 6-6c0 0 0-1 1-1s16-15 16-16l4-4c2-2 4-4 4-5s2-3 4-5 4-5 4-5c0-1 1-2 3-4 1-1 3-3 3-4 1-2 6-8 13-15 4-4 7-8 7-8 0-1 2-2 4-3q3-1.5 3-3c0-2 3-6 5-6 0 0 1-2 1-4 1-1 2-3 2-3 1 0 1-1 1-1 0-1 1-2 2-2 0-1 1-2 1-2 0-1 0-2 1-2s1-1 2-2c0-1 6-8 11-12 4-4 7-7 8-9 1-1 2-2 4-2 1-1 2-1 3-1 2-1 3 0 3 2 0 3 2 4 5 3 2-1 13-17 13-19 0-1-4-2-8-3s-4-4 0-7c2-2 2-2 7 0 4 2 5 3 6 2 2-2 24-39 24-40s-6-5-8-5c0 0-1 1-2 3m877 2c-1 1-3 6-3 9 0 1-1 2-2 3s-2 2-2 3-1 2-1 2c-1 1-2 2-2 3 0 2-1 3-1 3-1 1-2 2-2 3s-1 2-2 3c-2 0-2 1-1 3 0 2 0 3-2 4l-2 2c0 1-1 2-2 3-2 0-3 2-3 2 0 1 0 2-1 2 0 0-1 1-1 3 0 3-1 4-4 6-4 3-5 4-5 10 0 4 0 5-1 6-1 0-2 1-2 2s-1 2-1 2l-2 2c0 2 3 4 5 3 1-1 9-13 12-19 1-2 4-6 5-9 2-2 5-7 7-11 4-8 6-12 15-29l4-8c0-2-4-4-6-3m56 55v16c1 9 1 21 1 28 0 13 0 13 3 14 3 2 3 8 0 9-2 1-3 14-1 14s2 0 4 1c3 2 4 0 4-15 0-18-1-44-2-44s-1-5-1-12c0-6 0-11-1-11-2-1-6-1-7 0m-131 7c-1 1-5 6-9 11-3 6-11 17-17 25s-11 16-11 17c-1 1-2 2-3 2 0 1-5 7-10 14-9 11-25 30-32 38-2 2-10 11-19 20-8 9-17 18-19 20s-8 7-13 13c-18 17-27 25-35 31-3 4-10 10-14 14-11 9-31 25-40 32s-9 8-5 10c3 1 6 1 7-2 0-1 2-3 4-4 2 0 6-4 11-8l11-11c2-1 4-3 6-5 1-1 4-3 6-5s5-5 7-6c2 0 3-1 3-2s1-2 3-2c3-2 3-2 5-2 1 0 1-1 1-2 0-3 5-6 8-5 6 1 9-2 9-7 0-4 0-5 6-11l8-8c2-1 4-3 5-4 1-2 3-4 4-5 2-1 4-4 5-5 2-1 7-6 12-11 5-4 9-8 9-8 1 0 1 0 1-1s1-2 2-3 2-3 4-4c1-2 3-3 4-4s2-3 3-4c1-2 3-4 5-5l4-4c0-2 2-4 4-5 3-1 4-2 4-3 0-2 2-4 7-10 2-2 4-5 5-7 0-1 2-3 3-5 2-1 4-4 5-5 3-4 8-9 10-9 2-1 2-2 2-5-1-2-1-4 0-4s6-5 6-7c0-1 8-9 9-9s1-1 1-2 1-2 5-3c4-2 6-6 3-6-1 0-1-2 1-4 0 0 1-2 1-3s1-2 2-2c0-1 1-2 1-3 0-2 5-8 7-8 3 0 4-2 3-5-2-4-3-5-5-4m-197 27-8 8-4 4-3 3c-2 1-4 3-4 4-1 1-2 3-4 4s-4 3-5 5c0 1-2 4-4 5s-3 2-4 3c0 1-1 3-3 4-1 1-3 2-3 4l-4 4c-2 1-4 3-4 4l-3 3c-2 1-4 3-5 5 0 2-2 3-5 4-3 2-4 3-4 5-1 2-2 3-4 4-1 1-3 2-4 3-1 2-2 3-4 4s-3 2-4 4c0 1-3 3-4 4-3 1-4 2-4 3s-1 3-3 4-4 3-5 4c-1 2-3 3-5 4s-3 3-4 4c0 1-2 4-4 5-5 4-5 5-2 7 3 1 4 0 9-4 20-16 69-66 95-96 18-20 19-21 17-22s-3-1-7 3m-1135 35c-1 0-1 3-1 9 0 8 0 10-2 11-1 1-1 4-1 38 0 38 0 40 2 41 3 1 4-1 5-21 1-11 1-24 2-29 0-8 0-9-2-9-3-1-3-6 0-8 3-1 3-1 3-16v-16s-5-1-6 0m430 28c-2 1-3 3-3 3 0 1-1 3-3 4-4 3-5 4-5 6 0 1-1 3-2 4-2 2-3 4-3 5s0 2-1 2l-2 2c0 1-2 4-3 5-2 2-3 3-3 4 0 0-2 2-5 4-4 2-5 4-5 6-1 2-2 4-5 5-2 1-3 2-3 4 0 1 0 2-1 2s-1 1-1 1c0 1-1 2-2 2-1 1-2 2-2 4 0 1-1 2-1 3-4 1-2 6 2 5 3-1 56-68 56-71 0-1-3-3-4-3s-2 1-4 3m862 17c-1 1-2 3-3 4 0 1-1 2-1 2s-1 1-1 3c-1 2-2 3-6 5l-5 5c0 2-2 3-4 4-3 2-4 3-4 5-1 2-2 4-5 5-2 1-4 3-4 4s-2 2-5 4c-4 1-6 3-6 3s-1 1-2 1c-1 1-2 2-2 5-1 2-2 4-4 5s-3 3-4 4c0 2-2 4-4 4-2 2-3 3-3 6s-1 3-4 3c-2 0-5 2-5 5 0 2 0 3-1 3h-3c-2 1-5 3-5 6 0 0-1 1-2 1-3 1-11 10-11 11s1 2 2 3c2 1 3 0 9-5 19-16 57-54 73-73 5-5 11-12 14-15 5-6 6-9 3-10-2-1-4-1-7 2m-925 63c-4 5-6 7-8 8s-3 3-4 4c0 2-2 3-3 4-2 1-4 3-5 5s-4 5-6 7-3 4-3 4c0 1-1 3-3 4s-3 3-3 4q0 1.5-3 3c-2 1-3 3-3 4s0 2-1 2c0 0-1 1-1 2l-3 3c-1 0-2 1-2 1 0 1-2 3-4 5-3 3-5 5-5 6 0 0-3 3-7 6l-3 3q0 1.5-3 3l-3 3c0 1-5 6-8 8-1 1-2 3-3 4-1 2-3 4-4 4-2 1-3 2-4 4s-3 4-4 4c-2 1-4 3-4 4-1 2-2 3-3 4-1 0-3 2-5 3-1 2-3 4-5 5s-3 2-4 3c0 2-2 4-4 5-1 2-3 4-3 5l-3 3c-2 1-4 2-5 4-1 1-3 3-5 4s-3 3-3 4-2 3-4 4-4 3-5 4c0 1-1 3-3 4-2 0-3 1-3 2 0 0-3 4-7 7-3 4-12 12-18 19-7 6-15 13-18 16-3 2-8 5-10 7s-5 5-7 5c-2 1-3 3-3 4s-6 6-7 5-2 0-2 3c-1 3-2 3-5 5-2 1-4 2-4 3l-4 4c-2 1-4 3-4 3q0 1.5-3 3c-4 4-7 7-7 8s-3 3-8 6c-3 2-6 4-7 5-7 6-7 6-9 5-3-2-5 0-5 4 0 3-1 3-4 5-2 1-4 3-4 4 0 0 0 1-1 1s-1 1-1 1c0 1-2 2-4 3-2 2-4 3-4 4-2 3-4 5-8 8-2 1-4 3-4 3 0 1-6 3-8 3s-3 0-3 2c0 1-2 3-4 4-4 3-8 6-13 11-3 2-6 5-8 6-3 1-5 3-5 3-1 1-1 2-2 3 0 1-2 1-3 2-3 0-7 3-7 5s-12 8-17 8c-2 1-6 2-9 3-4 2-4 2-3 6 0 3 0 4-1 4-1 1-2 1-2 2 0 2-4 5-9 7l-4 2s-2 2-5 2c-2 1-5 3-5 4-1 2-3 4-5 5-7 4-9 7-5 8 3 1 6 0 29-17 4-3 11-8 15-11 22-16 33-24 60-44 16-13 32-25 35-28s12-10 20-17 17-14 19-16c2-1 6-5 8-7 4-3 7-6 31-27 23-20 31-28 46-42 17-15 85-83 97-96 11-13 29-32 31-34 3-3 29-33 38-43 4-5 8-10 8-11 0-2-4-3-6-1m359 27c-15 14-42 41-60 60-72 71-121 121-146 149-4 5-8 9-9 10-2 0-1 3 1 3 2 1 5 0 9-5 2-2 5-4 6-5s2-3 4-4c1-1 2-3 3-4 3-3 12-12 12-13l4-2c2-2 3-3 3-5 0-1 1-2 4-4q3-1.5 3-3c0-1 2-2 5-4 3-1 4-2 4-4 0-3 2-6 5-7 1 0 2-1 2-2 0-2 1-3 4-4 2-2 4-3 4-5 1-1 3-3 5-4s3-3 3-4 1-3 4-4c2-1 4-3 4-4s4-5 5-5 1-1 1-2c0 0 0-1 1-1s1-1 1-2c0 0 0-1 1-1s6-4 6-6c0 0 2-2 4-3 1-1 3-2 3-3 0 0 0-1 1-1 0 0 1-1 1-2l4-4q3-1.5 3-3s2-2 4-3c1-1 3-2 3-3q0-1.5 3-3c4-2 7-6 7-7s2-2 4-3 4-3 4-4c1-1 2-3 4-4 3-1 4-2 4-4 0-1 1-2 4-4 3-1 4-2 4-4 0-1 1-2 4-4 3-1 4-2 4-4s1-3 5-5c3-1 4-2 4-3 0-2 1-3 5-3 2-1 4-2 4-5l4-2c2-2 3-3 3-5 0-1 1-3 3-4s3-2 3-4 2-3 5-5c3-1 4-3 4-4 0-2 1-3 4-4 2-2 4-3 4-4 1-2 3-3 4-4 3-1 4-3 4-4s1-3 3-4 4-3 5-5c1-1 2-3 3-4 1 0 2-1 2-2s0-2 1-2 1-1 1-1c0-1 1-2 2-3 2-1 3-4 0-4-1-1-8 6-27 26m399 64s-1 1-1 2-2 3-4 4-4 3-4 4c0 2-6 8-14 12-5 2-9 5-10 6s-3 2-4 3h-3s-1 2-1 3c-1 3-2 4-5 6-2 1-4 2-5 3 0 0-3 2-5 4-3 1-7 3-8 5l-6 3c-2 1-3 2-4 3 0 1-2 3-4 4l-3 3c0 1-18 19-19 19s-20 19-20 21l-5 5c-3 2-5 5-5 6 0 0-1 2-3 3q-3 3-3 6c0 3-1 4-4 6-2 1-4 4-5 7-1 2-3 5-3 6-1 1-1 2-2 3 0 1-1 2-2 3-1 0-1 2-2 5 0 2 0 5-1 6 0 2-1 3-1 4l-2 2c-1 1-2 3-2 4 0 2-1 4-1 6-1 4 0 5 4 5 4-1 3 0 6-9 9-30 27-59 53-84 17-16 30-26 68-54 9-8 17-14 18-15 1 0 6-4 12-9 5-4 10-8 10-9 0-2-6-4-10-2m-431 97-1 1c0 1-2 3-4 4-3 1-6 3-7 5-1 1-5 3-8 4-2 1-6 3-8 5-1 1-4 4-6 5s-4 3-4 4c0 0-2 2-5 3-4 1-6 3-6 3s-2 2-5 3-5 3-6 5-13 10-19 13c-1 0-2 1-2 1 0 2-3 4-7 6-2 1-3 3-3 3 0 1-2 3-4 5-3 1-5 3-5 3 0 1-13 14-14 14s-2 1-4 3-5 5-7 6-4 3-4 4c0 0-2 2-4 3-6 2-6 4-2 6 3 1 5 0 17-11s30-26 43-36c4-4 10-8 12-10 1-1 4-3 7-5s7-5 22-15c10-7 30-20 37-24 3-2 5-4 5-4 0-2-6-5-8-4m-587 29c-2 1-3 2-4 3-2 1-7 6-13 11-5 5-14 12-19 16-5 5-13 12-19 17-10 8-12 11-10 12l1 1c0 5 5 2 6-2 1-2 2-3 3-4 1 0 3-1 5-3 1-1 5-4 9-6 3-3 8-6 10-8s5-4 7-6l4-4c1-2 2-3 5-4 4-1 4-1 4-4 0-2 1-3 3-4 6-1 6-1 6-5s0-4 4-5c3-1 4-4 1-5-1-1-1-1-3 0m394 40c-1 2-8 9-14 16-10 12-16 19-33 39l-35 42c0 1-2 2-3 5-2 2-4 4-4 5 0 0 0 1-1 1 0 0-4 4-8 9-12 15-22 27-27 33-3 3-7 8-9 11-30 38-90 102-113 120s-30 23-47 34c-5 2-8 5-8 5 0 1 4 5 5 5s6-4 7-5l4-2c1-1 4-3 6-4 1-2 3-3 4-3 3 0 7-2 7-4l4-4c5-3 8-6 8-7 0 0 2-2 4-3s4-2 5-3c0 0 2-2 5-3 4-3 13-10 24-21l5-5 10-10c5-5 9-10 10-10 0-1 2-2 3-3 1-2 4-5 7-7 2-3 4-5 4-6l3-3c2-1 4-3 4-4s1-3 3-4q3-1.5 3-3c1-2 3-5 5-7 3-3 5-6 6-7s4-5 6-7c3-3 7-7 9-10 2-2 4-4 5-4 1-1 3-3 4-5 0-2 2-4 3-5 2 0 5-5 5-7q0-1.5 3-3c1-2 2-4 2-5s1-3 4-4l3-3c0-1 2-3 4-5 13-11 17-16 17-18 0-1 0-2 1-2s4-6 4-8c0-1 0-2 1-2 2 0 6-5 6-7 0-1 2-3 5-5s5-4 6-5c0-2 2-4 4-4l4-4c1-2 2-4 3-4l2-2c0-1 1-2 2-2 0-1 1-2 1-3 0 0 1-3 3-5s3-4 3-5 1-3 3-4 3-3 3-4c0 0 5-5 9-8 0 0 2-2 3-4 2-2 4-4 6-5 1-1 2-2 3-4 0-1 2-3 3-4 2-2 4-4 4-5 1-2 2-3 3-4 2 0 3-2 4-4s3-4 3-5c1-1 2-2 2-3 0 0 0-1 1-1s1-1 1-1c0-1 1-2 1-3 1 0 2-2 2-3 2-4-2-5-5-1m241 50c-1 0-1 3 1 3 0 1 1 2 1 3 0 2 1 3 2 3 1 1 2 2 2 3 0 0 0 1 1 1s1 1 1 2l2 2s1 1 1 2c0 0 1 1 1 2 1 0 2 2 3 3s2 3 4 4c1 1 2 3 2 4s2 3 4 4 4 3 5 5c0 2 2 3 4 4q3 1.5 3 3c0 2 1 3 3 5 2 1 5 3 5 4 1 2 3 3 3 3 1 0 14 13 14 14l2 2c3 2 7 6 7 8 0 0 1 2 3 2 1 1 3 3 5 4l4 4c1 1 2 2 2 3s2 2 4 3 4 3 5 5c0 1 2 3 4 4s3 3 4 4c0 1 1 2 1 2 2 0 7 6 7 7q0 1.5 3 3c2 1 4 3 5 4 0 2 2 4 4 5 2 0 3 2 3 2 0 1 18 20 23 24 1 2 5 5 8 8s7 7 9 8c2 2 4 4 4 5s0 2 1 2 1 1 1 2c0 0 1 2 2 3 2 2 3 7 1 7l-2 2c0 1-1 2-2 3s-2 2-2 3c0 4-3 4-48 4-42 0-44 0-50 2-5 2-8 5-5 5 1 0 1 1 1 1 0 3 3 3 8 2 3-1 20-1 49-2 25 0 46-1 47-1 1-1 3-4 5-9 2-4 5-9 6-10 0-2 1-3 1-4 0-2-7-11-11-15l-4-4c-1-4-50-53-94-97-24-24-44-46-58-62-6-7-13-14-13-14s-1 0-2 1m232 27c-2 1-1 7 2 10 8 7 8 14-1 18-1 1-2 2-2 5s-1 4-4 3c0 0-1-1-1-3 0-1 0-2-1-2-2 0-5-4-5-7 0-4-4-7-7-5-2 1-3 2-3 2 0 3 32 53 34 53 2 1 7-2 7-4 0 0-1-2-3-3s-4-3-5-5-2-4-3-5-2-3-2-4c0-4 9-7 13-5 1 1 3 2 4 1 2 0 8 4 8 7 1 4 8 6 8 2 0-1-4-7-8-14-14-22-15-23-20-33q-6-12-9-12s-1 0-2 1m40 65c-4 2-2 7 2 9 2 2 6 7 6 10 0 0-1 1-3 2-5 1-6 1-7 3-1 3-2 4-5 3-2-2-7-7-7-9s-5-3-7-2c-2 2-2 3 17 28 17 24 18 25 21 23s3-6-1-9c-3-4-4-7-1-7l3-3c1-4 11-5 12-1 2 3 9 5 9 2 0-1-4-6-8-13-5-6-13-16-17-23-5-7-10-13-11-13-1-1-1-1-3 0m29 82-2 2c0 2 15 21 24 30 8 8 8 8 24 8 18 0 19 0 19-4 0-5-6-6-20-5-14 2-15 2-15-1 0-2-1-3-4-4s-4-2-5-5c-1-2-2-5-4-6-1 0-3-2-3-4-1-1-2-3-4-5-2-1-3-2-3-2 0-1-4-5-5-5 0 0-1 1-2 1m122 23c-1 1-2 2-2 4s0 2-9 4c-2 0-6 1-8 2-3 0-10 1-16 1-12 0-14 0-14 3s1 3 41 3c37 1 40 1 40-2 0 0 0-1 1-1 2 0 1-3-1-3 0-1-6-1-11-1-12 0-14-1-13-5 0-3 0-4-2-5-2 0-3-1-3-1s-2 1-3 1m117 29c-2 1 2 9 6 12 5 3 6 6 8 11 1 4 5 8 8 10 2 0 3 6 1 7s-4 0-4-1-1-2-2-3l-3-3c0-1-3-4-7-7-3-2-6-5-8-7s-3-2-5-1-3 5-1 5c3 0 25 24 33 36 6 9 8 11 10 10 1 0 5-7 5-10 0 0 1-1 2-1 1-1 2-4 0-4-2-1-6-1-9-1-2-1-5-2-6-3-4-4-4-6 1-5 2 0 7-2 7-4 0-3-12-20-23-32-9-9-11-10-13-9m54 88c-6 4-5 13 2 10 2-1 4-2 10-1 9 1 295 1 297 0s2-7 0-8c-1-1-69-1-152-1-92 0-151 0-152-1s-2 0-5 1m-1387 0c-67 0-121 1-121 1-2 2-2 7 0 8 3 1 238 0 242-1 1 0 4-1 7-2s4-1 4-3c0-3-2-4-7-4-3 0-59 1-125 1m781 1c-2 0-1 7 1 8s579 1 584 0c4-1 4-1 4-4s-1-4-2-4c-1-1-585-1-587 0"/><path fill="#f3b324" d="M2862 1308c-1 0-1 1-1 2 1 2-1 16-3 23-5 15-6 18-10 25-8 16-24 34-44 51l-10 8c0 1-3 3-6 5-8 6-8 9 1 7 8-3 16-5 22-6 3 0 6-1 7-2 1 0 5-1 11-1 5-1 13-1 17-2 18-3 72-1 87 3 2 1 6 2 8 2 2 1 8 2 12 4q7.5 3 9 3c0-1 3 1 7 3 9 5 10 4 9-3-1-12-5-25-12-40-15-30-46-59-78-73-5-2-12-5-15-6-10-4-9-4-11-3"/></g></svg>